<svg width="167" height="54" viewBox="0 0 167 54" fill="none" xmlns="http://www.w3.org/2000/svg">
<path d="M11.0328 53.9972C10.6027 53.9972 10.183 53.9917 9.75624 53.9821C8.87222 53.9706 7.99025 53.8936 7.11759 53.7518C6.30388 53.6117 5.51561 53.351 4.77879 52.9784C4.04872 52.6088 3.38284 52.1242 2.80666 51.5432C2.22213 50.9691 1.73549 50.3031 1.36601 49.5718C0.992463 48.8357 0.733945 48.0468 0.599464 47.2324C0.454235 46.3573 0.37566 45.4724 0.364417 44.5854C0.355467 44.2877 0.34375 43.2964 0.34375 43.2964V10.6856C0.34375 10.6856 0.356229 9.70951 0.364488 9.42275C0.375253 8.53718 0.453371 7.6537 0.598165 6.77997C0.732895 5.96334 0.991613 5.17208 1.36536 4.4336C1.73348 3.70279 2.21742 3.03635 2.79843 2.46013C3.37878 1.87843 4.04679 1.39137 4.7781 1.01671C5.51323 0.645275 6.30001 0.386426 7.11207 0.248839C7.9876 0.105646 8.87262 0.0282283 9.75972 0.0172368L11.0335 0H156.111L157.4 0.0179285C158.279 0.0283739 159.156 0.1051 160.023 0.247455C160.844 0.386768 161.639 0.647423 162.382 1.02085C163.847 1.77589 165.039 2.97043 165.791 4.43704C166.159 5.17043 166.414 5.95523 166.547 6.76481C166.694 7.64571 166.776 8.53613 166.792 9.42897C166.796 9.82876 166.796 10.2582 166.796 10.6856C166.808 11.215 166.808 11.7188 166.808 12.2268V41.7717C166.808 42.2845 166.808 42.785 166.796 43.2895C166.796 43.7486 166.796 44.1691 166.791 44.602C166.774 45.4789 166.694 46.3534 166.55 47.2185C166.418 48.0388 166.161 48.8339 165.787 49.576C165.415 50.2994 164.931 50.9596 164.354 51.5322C163.777 52.1164 163.11 52.6038 162.378 52.9757C161.637 53.3512 160.843 53.6128 160.023 53.7518C159.151 53.8944 158.269 53.9713 157.385 53.9821C156.971 53.9917 156.538 53.9972 156.118 53.9972L154.588 54L11.0328 53.9972Z" fill="white"/>
<path d="M42.9347 27.0415C42.9478 26.0308 43.2162 25.0397 43.7152 24.1606C44.2141 23.2815 44.9273 22.5429 45.7885 22.0135C45.2414 21.2322 44.5197 20.5893 43.6808 20.1357C42.8418 19.6821 41.9086 19.4305 40.9553 19.4006C38.9218 19.1872 36.9504 20.6174 35.9141 20.6174C34.8578 20.6174 33.2624 19.4218 31.5443 19.4572C30.433 19.4931 29.35 19.8162 28.4008 20.3951C27.4515 20.974 26.6684 21.789 26.1277 22.7605C23.7858 26.8154 25.5327 32.7746 27.7761 36.0523C28.8986 37.6572 30.2104 39.45 31.9269 39.3864C33.6066 39.3168 34.2339 38.3154 36.2614 38.3154C38.2701 38.3154 38.8587 39.3864 40.61 39.346C42.4124 39.3168 43.548 37.7339 44.6311 36.1138C45.4376 34.9702 46.0582 33.7063 46.4699 32.3688C45.4227 31.9259 44.5291 31.1846 43.9005 30.2373C43.2718 29.2899 42.936 28.1785 42.9347 27.0415Z" fill="#696969"/>
<path d="M39.6248 17.2437C40.6076 16.0639 41.0917 14.5476 40.9745 13.0166C39.4731 13.1743 38.0862 13.8919 37.0902 15.0263C36.6032 15.5806 36.2303 16.2253 35.9926 16.9238C35.755 17.6222 35.6573 18.3607 35.7052 19.0969C36.4562 19.1046 37.1991 18.9419 37.8781 18.6208C38.557 18.2998 39.1543 17.8289 39.6248 17.2437Z" fill="#B6B6B6"/>
<path d="M63.087 35.48H57.5749L56.2512 39.3886H53.9165L59.1375 24.9277H61.5632L66.7841 39.3886H64.4096L63.087 35.48ZM58.1458 33.6764H62.5151L60.3612 27.333H60.3008L58.1458 33.6764Z" fill="black"/>
<path d="M78.0588 34.1168C78.0588 37.3932 76.3052 39.4981 73.6589 39.4981C72.9885 39.5332 72.3219 39.3788 71.7352 39.0526C71.1485 38.7263 70.6656 38.2415 70.3416 37.6536H70.2916V42.8757H68.1274V28.8447H70.2222V30.5983H70.262C70.6008 30.0131 71.0919 29.5308 71.6831 29.2026C72.2742 28.8744 72.9433 28.7126 73.6191 28.7344C76.295 28.7344 78.0588 30.8496 78.0588 34.1168ZM75.8344 34.1168C75.8344 31.9823 74.7313 30.5789 73.0482 30.5789C71.3947 30.5789 70.2825 32.0118 70.2825 34.1168C70.2825 36.2412 71.3947 37.6638 73.0482 37.6638C74.7313 37.6638 75.8344 36.2707 75.8344 34.1168H75.8344Z" fill="black"/>
<path d="M89.6639 34.1168C89.6639 37.3932 87.9097 39.4981 85.2634 39.4981C84.593 39.5332 83.9264 39.3788 83.3397 39.0526C82.753 38.7263 82.2701 38.2415 81.9461 37.6536H81.8961V42.8757H79.7319V28.8447H81.8267V30.5983H81.8665C82.2053 30.0131 82.6964 29.5308 83.2876 29.2026C83.8787 28.8744 84.5478 28.7126 85.2236 28.7344C87.8995 28.7344 89.6639 30.8496 89.6639 34.1168ZM87.4389 34.1168C87.4389 31.9823 86.3358 30.5789 84.6527 30.5789C82.9992 30.5789 81.887 32.0118 81.887 34.1168C81.887 36.2412 82.9992 37.6638 84.6527 37.6638C86.3358 37.6638 87.4389 36.2707 87.4389 34.1168Z" fill="black"/>
<path d="M97.3306 35.3594C97.4909 36.7934 98.884 37.735 100.788 37.735C102.612 37.735 103.924 36.7934 103.924 35.5003C103.924 34.3779 103.133 33.7058 101.259 33.2452L99.3844 32.7938C96.729 32.1524 95.4963 30.9105 95.4963 28.8954C95.4963 26.4003 97.6706 24.6865 100.757 24.6865C103.814 24.6865 105.909 26.4003 105.979 28.8954H103.795C103.664 27.4522 102.471 26.5811 100.727 26.5811C98.9841 26.5811 97.7912 27.4625 97.7912 28.7453C97.7912 29.7676 98.5531 30.3692 100.417 30.8297L102.01 31.2209C104.977 31.9226 106.209 33.1144 106.209 35.2296C106.209 37.9351 104.055 39.6295 100.627 39.6295C97.4204 39.6295 95.2551 37.9749 95.1152 35.3593L97.3306 35.3594Z" fill="black"/>
<path d="M110.881 26.3506V28.8456H112.886V30.5594H110.881V36.3718C110.881 37.2747 111.282 37.6955 112.163 37.6955C112.401 37.6913 112.639 37.6746 112.875 37.6454V39.349C112.479 39.423 112.076 39.4565 111.673 39.449C109.539 39.449 108.706 38.6473 108.706 36.6026V30.5594H107.173V28.8456H108.706V26.3506H110.881Z" fill="black"/>
<path d="M114.048 34.1176C114.048 30.8003 116.002 28.7158 119.049 28.7158C122.106 28.7158 124.05 30.8003 124.05 34.1176C124.05 37.444 122.116 39.5194 119.049 39.5194C115.983 39.5194 114.048 37.444 114.048 34.1176ZM121.845 34.1176C121.845 31.842 120.802 30.499 119.049 30.499C117.295 30.499 116.252 31.8523 116.252 34.1176C116.252 36.4023 117.295 37.7351 119.049 37.7351C120.802 37.7351 121.845 36.4023 121.845 34.1176H121.845Z" fill="black"/>
<path d="M125.837 28.8446H127.901V30.6391H127.951C128.091 30.0786 128.419 29.5833 128.881 29.2364C129.343 28.8895 129.91 28.7122 130.487 28.7343C130.736 28.7334 130.985 28.7605 131.229 28.815V30.8393C130.914 30.743 130.585 30.6989 130.256 30.7085C129.942 30.6957 129.628 30.7512 129.337 30.871C129.046 30.9908 128.785 31.1721 128.571 31.4026C128.356 31.633 128.195 31.9071 128.096 32.206C127.998 32.5049 127.965 32.8215 128.001 33.1342V39.3877H125.837L125.837 28.8446Z" fill="black"/>
<path d="M141.201 36.292C140.91 38.2059 139.046 39.5194 136.661 39.5194C133.594 39.5194 131.69 37.4644 131.69 34.1676C131.69 30.8606 133.604 28.7158 136.57 28.7158C139.487 28.7158 141.322 30.7196 141.322 33.9163V34.6578H133.875V34.7886C133.841 35.1766 133.889 35.5675 134.018 35.9353C134.146 36.3031 134.351 36.6394 134.619 36.9218C134.887 37.2043 135.213 37.4264 135.573 37.5735C135.934 37.7206 136.322 37.7892 136.711 37.7749C137.223 37.8228 137.736 37.7044 138.175 37.4372C138.613 37.17 138.954 36.7683 139.146 36.292L141.201 36.292ZM133.885 33.1453H139.156C139.176 32.7964 139.123 32.4473 139.001 32.1198C138.879 31.7923 138.691 31.4936 138.448 31.2423C138.205 30.9911 137.913 30.7927 137.59 30.6597C137.267 30.5267 136.92 30.4619 136.57 30.4694C136.218 30.4673 135.868 30.535 135.542 30.6686C135.216 30.8023 134.92 30.9991 134.67 31.2479C134.421 31.4967 134.223 31.7924 134.088 32.1181C133.953 32.4438 133.884 32.7929 133.885 33.1453V33.1453Z" fill="black"/>
<path d="M57.8775 14.043C58.3312 14.0105 58.7865 14.079 59.2105 14.2437C59.6345 14.4084 60.0167 14.6652 60.3295 14.9955C60.6422 15.3257 60.8778 15.7213 61.0192 16.1537C61.1606 16.586 61.2042 17.0444 61.147 17.4956C61.147 19.7155 59.9473 20.9915 57.8775 20.9915H55.3677V14.043H57.8775ZM56.4469 20.0088H57.757C58.0812 20.0282 58.4056 19.9751 58.7067 19.8532C59.0078 19.7314 59.2779 19.544 59.4974 19.3046C59.7169 19.0652 59.8802 18.7799 59.9756 18.4694C60.0709 18.1589 60.0958 17.8311 60.0485 17.5098C60.0924 17.1897 60.0649 16.8639 59.9682 16.5557C59.8714 16.2475 59.7076 15.9646 59.4886 15.7271C59.2696 15.4896 59.0008 15.3035 58.7014 15.1821C58.402 15.0607 58.0795 15.0071 57.757 15.025H56.4469V20.0088Z" fill="black"/>
<path d="M62.3681 18.3682C62.3352 18.0236 62.3746 17.6759 62.4839 17.3474C62.5932 17.019 62.7699 16.717 63.0027 16.4608C63.2355 16.2046 63.5194 15.9999 63.8359 15.8599C64.1525 15.7198 64.4949 15.6475 64.841 15.6475C65.1872 15.6475 65.5296 15.7198 65.8461 15.8599C66.1627 15.9999 66.4465 16.2046 66.6793 16.4608C66.9122 16.717 67.0889 17.019 67.1982 17.3474C67.3075 17.6759 67.3469 18.0236 67.3139 18.3682C67.3475 18.7132 67.3085 19.0613 67.1996 19.3903C67.0906 19.7193 66.914 20.0219 66.6811 20.2786C66.4482 20.5352 66.1641 20.7404 65.8473 20.8807C65.5304 21.0211 65.1876 21.0936 64.841 21.0936C64.4944 21.0936 64.1517 21.0211 63.8348 20.8807C63.5179 20.7404 63.2339 20.5352 63.001 20.2786C62.7681 20.0219 62.5915 19.7193 62.4825 19.3903C62.3735 19.0613 62.3346 18.7132 62.3681 18.3682ZM66.2495 18.3682C66.2495 17.2316 65.7388 16.5669 64.8427 16.5669C63.9432 16.5669 63.4372 17.2316 63.4372 18.3682C63.4372 19.514 63.9432 20.1735 64.8427 20.1735C65.7389 20.1735 66.2495 19.5094 66.2495 18.3682H66.2495Z" fill="black"/>
<path d="M73.8862 20.9927H72.8127L71.7289 17.1307H71.647L70.5678 20.9927H69.5045L68.0591 15.749H69.1087L70.0481 19.7503H70.1254L71.2035 15.749H72.1963L73.2744 19.7503H73.3563L74.291 15.749H75.3259L73.8862 20.9927Z" fill="black"/>
<path d="M76.543 15.748H77.5392V16.581H77.6165C77.7477 16.2818 77.969 16.031 78.2495 15.8635C78.53 15.6961 78.8557 15.6203 79.1813 15.6468C79.4365 15.6276 79.6927 15.6661 79.9309 15.7593C80.1692 15.8526 80.3834 15.9983 80.5577 16.1856C80.732 16.3729 80.8619 16.597 80.9379 16.8414C81.0138 17.0857 81.0338 17.344 80.9963 17.5971V20.9916H79.9615V17.857C79.9615 17.0143 79.5953 16.5952 78.8299 16.5952C78.6567 16.5871 78.4838 16.6166 78.323 16.6816C78.1622 16.7467 78.0174 16.8457 77.8985 16.9719C77.7796 17.0981 77.6893 17.2485 77.634 17.4129C77.5786 17.5772 77.5595 17.7516 77.5778 17.924V20.9917H76.543L76.543 15.748Z" fill="black"/>
<path d="M82.6455 13.7012H83.6804V20.9919H82.6455V13.7012Z" fill="black"/>
<path d="M85.1206 18.3673C85.0876 18.0227 85.1271 17.675 85.2364 17.3465C85.3457 17.018 85.5224 16.716 85.7553 16.4598C85.9881 16.2036 86.272 15.999 86.5886 15.8589C86.9052 15.7188 87.2475 15.6465 87.5937 15.6465C87.9399 15.6465 88.2823 15.7188 88.5989 15.8589C88.9155 15.999 89.1993 16.2036 89.4322 16.4598C89.665 16.716 89.8418 17.018 89.9511 17.3465C90.0604 17.675 90.0998 18.0227 90.0669 18.3673C90.1004 18.7123 90.0614 19.0605 89.9524 19.3895C89.8434 19.7185 89.6667 20.021 89.4338 20.2777C89.2009 20.5344 88.9169 20.7395 88.6 20.8798C88.2831 21.0202 87.9403 21.0927 87.5937 21.0927C87.2471 21.0927 86.9044 21.0202 86.5875 20.8798C86.2706 20.7395 85.9865 20.5344 85.7536 20.2777C85.5207 20.021 85.344 19.7185 85.235 19.3895C85.126 19.0605 85.087 18.7123 85.1206 18.3673ZM89.0019 18.3673C89.0019 17.2307 88.4913 16.566 87.5951 16.566C86.6956 16.566 86.1896 17.2307 86.1896 18.3673C86.1896 19.5131 86.6956 20.1727 87.5951 20.1727C88.4913 20.1727 89.0019 19.5085 89.0019 18.3673H89.0019Z" fill="black"/>
<path d="M91.1499 19.5094C91.1499 18.5656 91.8527 18.0214 93.1002 17.9441L94.5206 17.8622V17.4096C94.5206 16.8557 94.1544 16.543 93.4471 16.543C92.8694 16.543 92.4691 16.7551 92.3542 17.1258H91.3523C91.4581 16.2252 92.3053 15.6475 93.4948 15.6475C94.8095 15.6475 95.5509 16.3019 95.5509 17.4096V20.9924H94.5547V20.2555H94.4729C94.3067 20.5198 94.0733 20.7353 93.7966 20.8799C93.5199 21.0246 93.2097 21.0932 92.8978 21.0788C92.6777 21.1017 92.4552 21.0782 92.2447 21.0098C92.0342 20.9415 91.8404 20.8298 91.6757 20.6819C91.511 20.5341 91.3791 20.3533 91.2886 20.1514C91.198 19.9494 91.1508 19.7308 91.1499 19.5094ZM94.5206 19.0614V18.623L93.2401 18.7049C92.518 18.7532 92.1904 18.9988 92.1904 19.4611C92.1904 19.9331 92.5998 20.2077 93.1628 20.2077C93.3278 20.2244 93.4944 20.2077 93.6528 20.1587C93.8111 20.1097 93.958 20.0293 94.0847 19.9224C94.2114 19.8154 94.3153 19.6841 94.3902 19.5362C94.4651 19.3883 94.5094 19.2268 94.5206 19.0614Z" fill="black"/>
<path d="M96.9136 18.3678C96.9136 16.7108 97.7654 15.6612 99.0902 15.6612C99.4179 15.6461 99.7432 15.7246 100.028 15.8875C100.313 16.0504 100.545 16.291 100.698 16.5811H100.776V13.7012H101.81V20.9919H100.819V20.1634H100.737C100.572 20.4516 100.331 20.6892 100.041 20.8505C99.7509 21.0117 99.422 21.0905 99.0902 21.0783C97.7563 21.0784 96.9136 20.0287 96.9136 18.3678ZM97.9826 18.3678C97.9826 19.48 98.5069 20.1492 99.3837 20.1492C100.256 20.1492 100.795 19.4703 100.795 18.3723C100.795 17.2794 100.25 16.5909 99.3837 16.5909C98.5125 16.5909 97.9826 17.2647 97.9826 18.3678H97.9826Z" fill="black"/>
<path d="M106.096 18.3682C106.063 18.0236 106.102 17.6759 106.211 17.3474C106.321 17.019 106.497 16.717 106.73 16.4608C106.963 16.2046 107.247 15.9999 107.563 15.8599C107.88 15.7198 108.222 15.6475 108.569 15.6475C108.915 15.6475 109.257 15.7198 109.574 15.8599C109.89 15.9999 110.174 16.2046 110.407 16.4608C110.64 16.717 110.816 17.019 110.926 17.3474C111.035 17.6759 111.074 18.0236 111.041 18.3682C111.075 18.7132 111.036 19.0613 110.927 19.3903C110.818 19.7193 110.641 20.0219 110.409 20.2786C110.176 20.5352 109.892 20.7404 109.575 20.8807C109.258 21.0211 108.915 21.0936 108.569 21.0936C108.222 21.0936 107.879 21.0211 107.562 20.8807C107.245 20.7404 106.961 20.5352 106.729 20.2786C106.496 20.0219 106.319 19.7193 106.21 19.3903C106.101 19.0613 106.062 18.7132 106.096 18.3682ZM109.977 18.3682C109.977 17.2316 109.466 16.5669 108.57 16.5669C107.671 16.5669 107.165 17.2316 107.165 18.3682C107.165 19.514 107.671 20.1735 108.57 20.1735C109.466 20.1735 109.977 19.5094 109.977 18.3682Z" fill="black"/>
<path d="M112.428 15.748H113.424V16.581H113.501C113.632 16.2818 113.854 16.031 114.134 15.8635C114.415 15.6961 114.74 15.6203 115.066 15.6468C115.321 15.6276 115.577 15.6661 115.816 15.7593C116.054 15.8526 116.268 15.9983 116.442 16.1856C116.617 16.3729 116.747 16.597 116.823 16.8414C116.899 17.0857 116.919 17.344 116.881 17.5971V20.9916H115.846V17.857C115.846 17.0143 115.48 16.5952 114.715 16.5952C114.541 16.5871 114.369 16.6166 114.208 16.6816C114.047 16.7467 113.902 16.8457 113.783 16.9719C113.664 17.0981 113.574 17.2485 113.519 17.4129C113.463 17.5772 113.444 17.7516 113.463 17.924V20.9917H112.428V15.748Z" fill="black"/>
<path d="M122.727 14.4424V15.7718H123.863V16.6435H122.727V19.3398C122.727 19.8891 122.953 20.1296 123.468 20.1296C123.6 20.1292 123.732 20.1212 123.863 20.1057V20.9677C123.677 21.001 123.489 21.0187 123.3 21.0206C122.149 21.0206 121.691 20.6158 121.691 19.6048V16.6434H120.858V15.7717H121.691V14.4424H122.727Z" fill="black"/>
<path d="M125.278 13.7012H126.304V16.5908H126.386C126.524 16.2889 126.751 16.0366 127.037 15.8686C127.323 15.7005 127.654 15.6247 127.985 15.6515C128.239 15.6377 128.492 15.6801 128.728 15.7756C128.964 15.8711 129.175 16.0175 129.348 16.2042C129.52 16.3909 129.649 16.6134 129.726 16.8558C129.802 17.0982 129.825 17.3545 129.791 17.6064V20.9919H128.755V17.8617C128.755 17.0241 128.365 16.5999 127.634 16.5999C127.456 16.5853 127.277 16.6098 127.109 16.6716C126.942 16.7334 126.79 16.831 126.664 16.9576C126.538 17.0842 126.442 17.2368 126.381 17.4047C126.321 17.5725 126.297 17.7516 126.313 17.9293V20.9919H125.278L125.278 13.7012Z" fill="black"/>
<path d="M135.824 19.5757C135.684 20.0549 135.379 20.4694 134.964 20.7468C134.548 21.0241 134.049 21.1466 133.552 21.0927C133.207 21.1018 132.863 21.0357 132.546 20.8988C132.229 20.7619 131.945 20.5576 131.714 20.3001C131.484 20.0426 131.312 19.738 131.211 19.4075C131.11 19.077 131.083 18.7285 131.13 18.3861C131.084 18.0427 131.112 17.6935 131.213 17.362C131.314 17.0305 131.484 16.7245 131.714 16.4647C131.943 16.2049 132.225 15.9974 132.542 15.8563C132.858 15.7151 133.201 15.6436 133.548 15.6466C135.007 15.6466 135.887 16.6434 135.887 18.29V18.6511H132.184V18.7091C132.168 18.9015 132.192 19.0952 132.255 19.2778C132.318 19.4603 132.418 19.6277 132.55 19.7691C132.681 19.9105 132.841 20.0229 133.019 20.0991C133.196 20.1752 133.387 20.2135 133.58 20.2113C133.828 20.241 134.079 20.1965 134.301 20.0833C134.523 19.9701 134.707 19.7934 134.828 19.5756L135.824 19.5757ZM132.184 17.8858H134.833C134.846 17.7098 134.822 17.533 134.762 17.3668C134.703 17.2006 134.61 17.0487 134.488 16.9207C134.366 16.7928 134.219 16.6917 134.056 16.624C133.894 16.5562 133.718 16.5233 133.542 16.5274C133.363 16.5251 133.185 16.5587 133.019 16.6262C132.854 16.6937 132.703 16.7936 132.576 16.9202C132.45 17.0468 132.35 17.1975 132.283 17.3633C132.215 17.5291 132.182 17.7068 132.184 17.8858H132.184Z" fill="black"/>
</svg>
