<svg width="182" height="54" viewBox="0 0 182 54" fill="none" xmlns="http://www.w3.org/2000/svg">
<path d="M174.627 54H6.71642C3.02239 54 0 50.9625 0 47.25V6.75C0 3.0375 3.02239 -3.8147e-06 6.71642 -3.8147e-06H174.627C178.321 -3.8147e-06 181.343 3.0375 181.343 6.75V47.25C181.343 50.9625 178.321 54 174.627 54Z" fill="white"/>
<g style="mix-blend-mode:luminosity">
<path d="M36.0736 26.2828L23.6602 39.5241C23.6606 39.5268 23.6616 39.5291 23.662 39.5318C24.0427 40.9696 25.3494 42.0283 26.9003 42.0283C27.5202 42.0283 28.1022 41.8599 28.6014 41.5642L28.641 41.5408L42.614 33.4376L36.0736 26.2828Z" fill="#EB3131"/>
<path d="M48.6258 24.0283L48.6139 24.0201L42.5814 20.5055L35.7852 26.5834L42.6051 33.4365L48.6057 29.9569C49.6578 29.3861 50.372 28.2715 50.372 26.9861C50.372 25.7101 49.6674 24.601 48.6258 24.0283Z" fill="#F6B60B"/>
<path d="M23.6568 14.393C23.5822 14.6696 23.543 14.9593 23.543 15.2601V38.658C23.543 38.9582 23.5817 39.2489 23.6573 39.5244L36.4979 26.6219L23.6568 14.393Z" fill="#5778C5"/>
<path d="M36.1656 26.96L42.5907 20.5045L28.6337 12.3721C28.1264 12.0667 27.5343 11.8905 26.9007 11.8905C25.3499 11.8905 24.0414 12.951 23.6606 14.3906C23.6602 14.392 23.6602 14.3929 23.6602 14.3942L36.1656 26.96Z" fill="#3BAD49"/>
</g>
<path d="M67.3625 15.641C67.3625 16.6228 67.0732 17.4046 66.4938 17.9879C65.8357 18.6813 64.978 19.0283 63.9236 19.0283C62.9138 19.0283 62.0553 18.6768 61.3493 17.9727C60.642 17.2692 60.2891 16.3968 60.2891 15.3558C60.2891 14.3144 60.642 13.4425 61.3493 12.7384C62.0553 12.0349 62.9138 11.6829 63.9236 11.6829C64.4246 11.6829 64.9043 11.7813 65.3597 11.9777C65.8152 12.1746 66.1805 12.4359 66.4538 12.7632L65.8388 13.3815C65.3757 12.8254 64.738 12.5476 63.9236 12.5476C63.1871 12.5476 62.5504 12.8076 62.013 13.328C61.4755 13.849 61.2068 14.5245 61.2068 15.3558C61.2068 16.1871 61.4755 16.8627 62.013 17.3837C62.5504 17.9041 63.1871 18.1641 63.9236 18.1641C64.7048 18.1641 65.3561 17.9027 65.8776 17.3791C66.216 17.038 66.4118 16.5639 66.4642 15.955H63.9236V15.1104H67.3137C67.3465 15.2941 67.3625 15.4703 67.3625 15.641Z" fill="black"/>
<path d="M67.358 15.643H67.2414C67.2404 16.6024 66.9616 17.3475 66.4068 17.907L66.4056 17.9079L66.4051 17.9088C65.7679 18.5784 64.9489 18.9117 63.9191 18.9131C62.9363 18.9117 62.1137 18.5748 61.4268 17.8919C60.7414 17.2075 60.4025 16.3721 60.4012 15.3578C60.4025 14.343 60.7414 13.5081 61.4268 12.8242C62.1137 12.1408 62.9363 11.8034 63.9191 11.802C64.4051 11.802 64.8679 11.8973 65.3092 12.0872C65.751 12.2786 66.1 12.5294 66.36 12.8407L66.4493 12.7651L66.3669 12.6823L65.7519 13.3011L65.8343 13.3835L65.9241 13.3085C65.4394 12.7248 64.7591 12.4306 63.9191 12.4323C63.1554 12.4314 62.4835 12.7056 61.9278 13.2458C61.3667 13.7878 61.0848 14.5013 61.0857 15.3578C61.0848 16.2143 61.3667 16.9278 61.9278 17.4698C62.4835 18.01 63.1554 18.2842 63.9191 18.2832C64.7262 18.2846 65.414 18.0095 65.9555 17.4639C66.3172 17.0995 66.5222 16.5946 66.5759 15.967L66.5868 15.8398H64.0357V15.2296H67.3092V15.1124L67.1944 15.133C67.2263 15.3107 67.2414 15.4795 67.2414 15.643H67.358H67.4746C67.4746 15.4649 67.4581 15.2818 67.4239 15.0914L67.4067 14.9952H63.8025V15.9569V16.0741H66.4597V15.9569L66.3435 15.9469C66.2921 16.5365 66.1053 16.9805 65.7906 17.2982C65.2896 17.7999 64.6748 18.0475 63.9191 18.0489C63.2099 18.0479 62.6083 17.8026 62.0895 17.3014C61.5758 16.8019 61.3202 16.1643 61.3189 15.3578C61.3202 14.5512 61.5758 13.9136 62.0895 13.4142C62.6083 12.913 63.2099 12.6676 63.9191 12.6667C64.7075 12.6686 65.3029 12.9304 65.7451 13.4591L65.8271 13.557L66.5317 12.848L66.6073 12.772L66.5385 12.69C66.252 12.3468 65.8704 12.0743 65.4012 11.8721C64.9312 11.6692 64.4352 11.5676 63.9191 11.5676C62.8825 11.5667 61.988 11.9329 61.2624 12.6576C60.5341 13.3808 60.167 14.2899 60.168 15.3578C60.167 16.4252 60.5341 17.3348 61.2628 18.0585C61.988 18.7827 62.8825 19.1484 63.9191 19.1475C64.9986 19.1484 65.894 18.7881 66.5736 18.0708L66.4893 17.9898L66.5717 18.0727C67.1757 17.4661 67.4754 16.6468 67.4746 15.643H67.358Z" fill="black"/>
<path d="M72.7326 12.7059H69.5466V14.9351H72.4197V15.78H69.5466V18.0093H72.7326V18.873H68.6484V11.8421H72.7326V12.7059Z" fill="black"/>
<path d="M72.7359 12.7059V12.5887H69.4333V15.0523H72.3064V15.6625L69.4333 15.6628V18.1265H72.6193V18.7559H68.7684V11.9593H72.6193V12.7059H72.7359V12.5887V12.7059H72.8525V11.8421V11.7249H68.5352V18.9902H72.8525V18.0093V17.8921H69.6665V15.8972H72.5396V14.9351V14.818H69.6665V12.823H72.8525V12.7059H72.7359Z" fill="black"/>
<path d="M76.5254 18.873H75.6258V12.7059H73.6719V11.8421H78.4794V12.7059H76.5254V18.873Z" fill="black"/>
<path d="M76.5248 18.8731V18.7559H75.7419V12.5887H73.7879V11.9593H78.3622V12.5887H76.4082V18.8731H76.5248V18.7559V18.8731H76.6414V12.823H78.5954V11.8421V11.7249H73.5547V12.7059V12.823H75.5087V18.9902H76.5248H76.6414V18.8731H76.5248Z" fill="black"/>
<path d="M81.957 18.873V11.8421H82.8557V18.873H81.957Z" fill="black"/>
<path d="M81.9603 18.8731H82.0769V11.9593H82.7424V18.7559H81.9603V18.8731H82.0769H81.9603V18.9902H82.859H82.9756V11.7249H81.9603H81.8438V18.9902H81.9603V18.8731Z" fill="black"/>
<path d="M86.8456 18.873H85.946V12.7059H83.9922V11.8421H88.7996V12.7059H86.8456V18.873Z" fill="black"/>
<path d="M86.845 18.8731V18.7559H86.0621V12.5887H84.1082V11.9593H88.6824V12.5887H86.7284V18.8731H86.845V18.7559V18.8731H86.9616V12.823H88.9156V11.8421V11.7249H83.875V12.7059V12.823H85.8289V18.9902H86.845H86.9616V18.8731H86.845Z" fill="black"/>
<path d="M93.4365 17.3741C93.9543 17.9009 94.5879 18.1641 95.3372 18.1641C96.0864 18.1641 96.7204 17.9009 97.2374 17.3741C97.7557 16.8472 98.0153 16.1738 98.0153 15.3558C98.0153 14.5379 97.7557 13.8644 97.2374 13.3376C96.7204 12.8107 96.0864 12.5476 95.3372 12.5476C94.5879 12.5476 93.9543 12.8107 93.4365 13.3376C92.9195 13.8644 92.6599 14.5379 92.6599 15.3558C92.6599 16.1738 92.9195 16.8472 93.4365 17.3741ZM97.9023 17.9627C97.2145 18.6735 96.3592 19.0283 95.3372 19.0283C94.3141 19.0283 93.4592 18.6735 92.7729 17.9627C92.0846 17.2527 91.7422 16.3835 91.7422 15.3558C91.7422 14.3281 92.0846 13.4589 92.7729 12.749C93.4592 12.038 94.3141 11.6829 95.3372 11.6829C96.3538 11.6829 97.2068 12.0399 97.8978 12.7536C98.5878 13.4672 98.9331 14.3346 98.9331 15.3558C98.9331 16.3835 98.5886 17.2527 97.9023 17.9627Z" fill="black"/>
<path d="M93.432 17.376L93.3491 17.4584C93.8861 18.0063 94.5561 18.2846 95.3327 18.2832C96.1088 18.2846 96.7797 18.0063 97.3158 17.4584C97.8564 16.91 98.1283 16.2004 98.1274 15.3578C98.1283 14.5151 97.8564 13.8056 97.3158 13.2572C96.7797 12.7092 96.1088 12.4309 95.3327 12.4323C94.5561 12.4309 93.8861 12.7092 93.3491 13.2572C92.8098 13.8056 92.5374 14.5151 92.5388 15.3578C92.5374 16.2004 92.8098 16.91 93.3491 17.4584L93.432 17.376L93.5149 17.2936C93.0203 16.7878 92.773 16.1515 92.772 15.3578C92.773 14.5641 93.0203 13.9278 93.5149 13.4219C94.0141 12.9162 94.6102 12.6681 95.3327 12.6667C96.0545 12.6681 96.6521 12.9162 97.15 13.4219C97.6455 13.9278 97.8929 14.5641 97.8938 15.3578C97.8929 16.1515 97.6455 16.7878 97.15 17.2936C96.6521 17.7994 96.0545 18.0475 95.3327 18.0489C94.6102 18.0475 94.0141 17.7994 93.5149 17.2936L93.432 17.376ZM97.8979 17.9646L97.8145 17.8832C97.1459 18.5716 96.3283 18.9117 95.3327 18.9131C94.3366 18.9117 93.519 18.5716 92.8517 17.8832L92.8485 17.8795L92.8517 17.8832C92.1845 17.1924 91.8552 16.3593 91.8543 15.3578C91.8552 14.3562 92.1845 13.5232 92.8517 12.8324C93.519 12.1439 94.3366 11.8034 95.3327 11.802C96.3219 11.8034 97.1376 12.1453 97.81 12.8374C98.4795 13.5314 98.8106 14.3631 98.812 15.3578C98.8106 16.3593 98.4804 17.1924 97.8145 17.8832L97.8979 17.9646L97.9817 18.0461C98.6885 17.3165 99.046 16.4115 99.0452 15.3578C99.046 14.3101 98.6871 13.4069 97.977 12.6741C97.2666 11.9384 96.3766 11.5663 95.3327 11.5676C94.2833 11.5663 93.3906 11.9366 92.6846 12.6695V12.669C91.9764 13.3991 91.6202 14.3041 91.6211 15.3578C91.6202 16.4115 91.9764 17.3165 92.6846 18.0465L92.6877 18.0498L92.6846 18.0461C93.3906 18.7789 94.2833 19.1484 95.3327 19.1475C96.3816 19.1484 97.2743 18.7789 97.9817 18.0461L97.8979 17.9646Z" fill="black"/>
<path d="M100.191 18.873V11.8421H101.285L104.685 17.3117H104.724L104.685 15.9567V11.8421H105.585V18.873H104.647L101.09 13.1384H101.051L101.09 14.4938V18.873H100.191Z" fill="black"/>
<path d="M100.191 18.8731H100.307V11.9593H101.22L104.62 17.4289H104.724H104.843L104.801 15.955V11.9593H105.468V18.7559H104.711L101.154 13.0212H101.05H100.931L100.972 14.4957V18.7559H100.191V18.8731H100.307H100.191V18.9902H101.089H101.206V14.492L101.167 13.1352L101.05 13.1384V13.2556H101.089V13.1384L100.99 13.2007L104.581 18.9902H105.584H105.701V11.7249H104.685H104.568V15.9581L104.607 17.3149L104.724 17.3117V17.1945H104.685V17.3117L104.784 17.2495L101.349 11.7249H100.191H100.074V18.9902H100.191V18.8731Z" fill="black"/>
<path d="M136.758 38.7937H138.934V24.1445H136.758V38.7937ZM156.355 29.4215L153.861 35.7726H153.786L151.198 29.4215H148.854L152.736 38.2984L150.523 43.2361H152.793L158.774 29.4215H156.355ZM144.016 37.1299C143.303 37.1299 142.309 36.7719 142.309 35.8857C142.309 34.755 143.548 34.3216 144.616 34.3216C145.573 34.3216 146.022 34.5289 146.604 34.8119C146.435 36.1686 145.272 37.1299 144.016 37.1299ZM144.279 29.101C142.703 29.101 141.072 29.7986 140.397 31.344L142.328 32.1542C142.741 31.344 143.509 31.0798 144.316 31.0798C145.441 31.0798 146.585 31.7587 146.604 32.9648V33.1154C146.21 32.8893 145.367 32.5501 144.335 32.5501C142.253 32.5501 140.134 33.6995 140.134 35.8481C140.134 37.8082 141.841 39.0711 143.753 39.0711C145.216 39.0711 146.022 38.4115 146.529 37.6389H146.604V38.7695H148.704V33.1529C148.704 30.5525 146.773 29.101 144.279 29.101ZM130.832 31.2048H127.738V26.1834H130.832C132.459 26.1834 133.382 27.5368 133.382 28.694C133.382 29.8293 132.459 31.2048 130.832 31.2048ZM130.776 24.1445H125.563V38.7937H127.738V33.2436H130.776C133.188 33.2436 135.558 31.489 135.558 28.694C135.558 25.8991 133.188 24.1445 130.776 24.1445ZM102.348 37.1325C100.845 37.1325 99.5868 35.8678 99.5868 34.1307C99.5868 32.3753 100.845 31.0913 102.348 31.0913C103.832 31.0913 104.997 32.3753 104.997 34.1307C104.997 35.8678 103.832 37.1325 102.348 37.1325ZM104.847 30.2418H104.771C104.283 29.6567 103.344 29.1281 102.16 29.1281C99.6807 29.1281 97.4079 31.3178 97.4079 34.1307C97.4079 36.9248 99.6807 39.0958 102.16 39.0958C103.344 39.0958 104.283 38.5671 104.771 37.9634H104.847V38.6806C104.847 40.5877 103.832 41.607 102.198 41.607C100.864 41.607 100.038 40.6439 99.6993 39.8323L97.8024 40.6252C98.3471 41.9466 99.7937 43.5703 102.198 43.5703C104.753 43.5703 106.913 42.0597 106.913 38.3785V29.4302H104.847V30.2418ZM108.416 38.7937H110.595V24.1441H108.416V38.7937ZM113.807 33.9609C113.75 32.0351 115.291 31.0537 116.399 31.0537C117.264 31.0537 117.996 31.4876 118.24 32.1112L113.807 33.9609ZM120.569 32.2997C120.157 31.1855 118.897 29.1281 116.324 29.1281C113.769 29.1281 111.647 31.148 111.647 34.1119C111.647 36.906 113.75 39.0958 116.568 39.0958C118.841 39.0958 120.157 37.6988 120.701 36.8872L119.01 35.7542C118.447 36.5851 117.676 37.1325 116.568 37.1325C115.46 37.1325 114.671 36.6227 114.164 35.6224L120.794 32.8659L120.569 32.2997ZM67.7403 30.6573V32.7716H72.7744C72.6241 33.9609 72.2297 34.8292 71.6285 35.4334C70.8961 36.1699 69.7502 36.9815 67.7403 36.9815C64.6407 36.9815 62.2177 34.4708 62.2177 31.3558C62.2177 28.2409 64.6407 25.7298 67.7403 25.7298C69.4122 25.7298 70.6329 26.3907 71.5346 27.2402L73.0186 25.749C71.7601 24.5405 70.0881 23.6154 67.7403 23.6154C63.4948 23.6154 59.9258 27.0892 59.9258 31.3558C59.9258 35.6224 63.4948 39.0958 67.7403 39.0958C70.0321 39.0958 71.7601 38.3411 73.1125 36.9248C74.5026 35.5277 74.9348 33.5645 74.9348 31.9789C74.9348 31.4876 74.8974 31.035 74.8218 30.6573H67.7403ZM80.6582 37.1325C79.1551 37.1325 77.8589 35.8865 77.8589 34.1119C77.8589 32.3185 79.1551 31.0913 80.6582 31.0913C82.1607 31.0913 83.4569 32.3185 83.4569 34.1119C83.4569 35.8865 82.1607 37.1325 80.6582 37.1325ZM80.6582 29.1281C77.9153 29.1281 75.6799 31.2235 75.6799 34.1119C75.6799 36.9815 77.9153 39.0958 80.6582 39.0958C83.4005 39.0958 85.6359 36.9815 85.6359 34.1119C85.6359 31.2235 83.4005 29.1281 80.6582 29.1281ZM91.5173 37.1325C90.0148 37.1325 88.7185 35.8865 88.7185 34.1119C88.7185 32.3185 90.0148 31.0913 91.5173 31.0913C93.0199 31.0913 94.3162 32.3185 94.3162 34.1119C94.3162 35.8865 93.0199 37.1325 91.5173 37.1325ZM91.5173 29.1281C88.7746 29.1281 86.5396 31.2235 86.5396 34.1119C86.5396 36.9815 88.7746 39.0958 91.5173 39.0958C94.2597 39.0958 96.4952 36.9815 96.4952 34.1119C96.4952 31.2235 94.2597 29.1281 91.5173 29.1281Z" fill="black"/>
</svg>
