<svg width="367" height="124" viewBox="0 0 367 124" fill="none" xmlns="http://www.w3.org/2000/svg">
<circle cx="35.5" cy="50.5" r="32.5" fill="#B2FFFF" stroke="white" stroke-width="6"/>
<circle cx="70.5" cy="50.5" r="32.5" fill="#B9FF98" stroke="white" stroke-width="6"/>
<circle cx="54.5" cy="82.5" r="32.5" fill="#FFD685" stroke="white" stroke-width="6"/>
<path d="M169.144 70.264V65.48C169.144 60.9413 168.469 57.476 167.12 55.084C165.832 52.692 163.103 51.496 158.932 51.496C152.185 51.496 148.812 56.0347 148.812 65.112V69.896C148.812 79.648 152.185 84.524 158.932 84.524C163.287 84.524 166.139 82.8987 167.488 79.648C168.592 77.072 169.144 73.944 169.144 70.264ZM181.104 67.504C181.104 78.8507 178.957 86.456 174.664 90.32C171.045 93.632 165.801 95.288 158.932 95.288C150.161 95.288 144.243 92.712 141.176 87.56C138.293 82.8373 136.852 76.152 136.852 67.504C136.852 59.408 138.293 53.06 141.176 48.46C144.365 43.308 150.161 40.732 158.564 40.732C167.028 40.732 172.885 43.0013 176.136 47.54C179.448 52.0173 181.104 58.672 181.104 67.504ZM213.117 94H205.665C201.126 94 197.661 92.6507 195.269 89.952C192.938 87.2533 191.773 84.0333 191.773 80.292V52.692H186.713V43.584H191.773V33.28H203.733V43.584H212.197V52.692H203.733V79.556C203.733 82.4387 205.113 83.88 207.873 83.88H213.117V94ZM261.377 41.468L241.413 99.888C240.493 102.525 239.297 104.58 237.825 106.052C235.372 108.505 231.937 109.732 227.521 109.732H221.909V98.968H225.589C227.306 98.968 228.564 98.6613 229.361 98.048C230.22 97.496 230.956 96.3613 231.569 94.644L232.489 92.068L216.665 41.468H229.269L238.653 77.992L248.773 41.468H261.377ZM309.046 94H297.086V61.064C297.086 55.4213 294.878 52.6 290.462 52.6L279.054 57.108V94H267.094V24.816H279.054V47.724L294.234 40.916C299.631 40.916 303.434 42.4493 305.642 45.516C307.911 48.5827 309.046 52.876 309.046 58.396V94ZM361.609 94H349.649V60.42C349.649 57.4147 349.035 55.36 347.809 54.256C346.582 53.152 344.865 52.6 342.657 52.6L331.893 57.108V94H319.933V41.468H328.857L331.617 47.724L346.337 40.916C350.446 40.916 354.003 42.4493 357.009 45.516C360.075 48.5213 361.609 52.9373 361.609 58.764V94Z" fill="#00022D"/>
</svg>
