<svg width="38" height="45" viewBox="0 0 38 45" fill="none" xmlns="http://www.w3.org/2000/svg">
<path fill-rule="evenodd" clip-rule="evenodd" d="M0 29.9793C8.3543 29.558 14.9985 22.6509 14.9985 14.1919C14.9985 14.1279 14.9981 14.0639 14.9973 14.0001C14.9981 14.0001 14.9989 14 14.9997 14C14.9989 14.0639 14.9986 14.1279 14.9986 14.1919C14.9986 22.9223 22.0759 29.9997 30.8063 29.9997C30.871 29.9997 30.9355 29.9993 31 29.9985C31 29.9993 31 30.0001 30.9999 30.0009C30.9355 30.0001 30.8709 29.9998 30.8063 29.9998C22.3468 29.9998 15.4393 36.6448 15.0188 44.9999C15.0053 44.9995 14.9917 44.9991 14.9781 44.9986C14.5706 36.9126 8.08708 30.4286 0.00129382 30.0202C0.000844579 30.0066 0.000414087 29.9929 0 29.9793Z" fill="#FF9900"/>
<path opacity="0.8" fill-rule="evenodd" clip-rule="evenodd" d="M25 12.7008C28.5036 12.5244 31.2901 9.62776 31.2901 6.08032C31.2901 6.05352 31.2899 6.02677 31.2896 6.00005C31.2902 6.00003 31.2907 6.00002 31.2913 6C31.291 6.02673 31.2908 6.05351 31.2908 6.08032C31.2908 9.74144 34.2587 12.7094 37.9199 12.7094C37.9466 12.7094 37.9733 12.7092 38 12.7089C38 12.7092 38 12.7096 38 12.7099C37.9733 12.7096 37.9466 12.7095 37.9199 12.7095C34.3723 12.7095 31.4755 15.4962 31.2993 19C31.2934 18.9998 31.2875 18.9997 31.2816 18.9995C31.1107 15.6084 28.3916 12.8891 25.0005 12.718C25.0004 12.7123 25.0002 12.7066 25 12.7008Z" fill="#FFB84D"/>
<path opacity="0.7" fill-rule="evenodd" clip-rule="evenodd" d="M6 4.12388C8.14752 4.01607 9.85738 2.24757 9.8714 0.0765777C9.88587 2.31719 11.7067 4.12909 13.9507 4.12909C13.9672 4.12909 13.9836 4.12899 14 4.1288C14 4.12903 14 4.12927 14 4.1295C13.9836 4.12931 13.9672 4.12921 13.9507 4.12921C11.7677 4.12921 9.98516 5.84396 9.87656 8.00002C9.87311 7.99991 9.86967 7.99981 9.86623 7.9997C9.76095 5.91277 8.08735 4.23938 6.00033 4.13444C6.00022 4.13092 6.00011 4.1274 6 4.12388ZM9.87161 0C9.87147 4.39935e-06 9.87133 8.80583e-06 9.87119 1.32195e-05C9.87128 0.00759305 9.87135 0.0151778 9.8714 0.0227676C9.87145 0.0151734 9.87152 0.00758423 9.87161 0Z" fill="#FFCD80"/>
</svg>
