<svg width="70" height="70" viewBox="0 0 70 70" fill="none" xmlns="http://www.w3.org/2000/svg">
<rect width="70" height="70" rx="18" fill="url(#paint0_linear_16345_162466)"/>
<g clip-path="url(#clip0_16345_162466)">
<path opacity="0.3" d="M32 25C29.38 25 27.25 27.13 27.25 29.75C27.25 32.32 29.26 34.4 31.88 34.49C31.96 34.48 32.04 34.48 32.1 34.49C32.12 34.49 32.13 34.49 32.15 34.49C32.16 34.49 32.16 34.49 32.17 34.49C34.73 34.4 36.74 32.32 36.75 29.75C36.75 27.13 34.62 25 32 25Z" fill="#010B36"/>
<path d="M37.08 37.1499C34.29 35.2899 29.74 35.2899 26.93 37.1499C25.66 37.9999 24.96 39.1499 24.96 40.3799C24.96 41.6099 25.66 42.7499 26.92 43.5899C28.32 44.5299 30.16 44.9999 32 44.9999C33.84 44.9999 35.68 44.5299 37.08 43.5899C38.34 42.7399 39.04 41.5999 39.04 40.3599C39.03 39.1299 38.34 37.9899 37.08 37.1499Z" fill="#010B36"/>
<path opacity="0.3" d="M42.9904 30.3401C43.1504 32.2801 41.7704 33.9801 39.8604 34.2101C39.8504 34.2101 39.8504 34.2101 39.8404 34.2101H39.8104C39.7504 34.2101 39.6904 34.2101 39.6404 34.2301C38.6704 34.2801 37.7804 33.9701 37.1104 33.4001C38.1404 32.4801 38.7304 31.1001 38.6104 29.6001C38.5404 28.7901 38.2604 28.0501 37.8404 27.4201C38.2204 27.2301 38.6604 27.1101 39.1104 27.0701C41.0704 26.9001 42.8204 28.3601 42.9904 30.3401Z" fill="#010B36"/>
<path d="M44.9902 39.5904C44.9102 40.5604 44.2902 41.4004 43.2502 41.9704C42.2502 42.5204 40.9902 42.7804 39.7402 42.7504C40.4602 42.1004 40.8802 41.2904 40.9602 40.4304C41.0602 39.1904 40.4702 38.0004 39.2902 37.0504C38.6202 36.5204 37.8402 36.1004 36.9902 35.7904C39.2002 35.1504 41.9802 35.5804 43.6902 36.9604C44.6102 37.7004 45.0802 38.6304 44.9902 39.5904Z" fill="#010B36"/>
</g>
<defs>
<linearGradient id="paint0_linear_16345_162466" x1="-32.5" y1="-35.5" x2="56.5" y2="61.5" gradientUnits="userSpaceOnUse">
<stop stop-color="#EBEFFF"/>
<stop offset="1" stop-color="white"/>
</linearGradient>
<clipPath id="clip0_16345_162466">
<rect width="24" height="24" fill="white" transform="translate(23 23)"/>
</clipPath>
</defs>
</svg>
