<svg width="70" height="70" viewBox="0 0 70 70" fill="none" xmlns="http://www.w3.org/2000/svg">
<rect width="70" height="70" rx="18" fill="url(#paint0_linear_16345_162478)"/>
<g clip-path="url(#clip0_16345_162478)">
<path d="M40.5004 40.8301H38.6504C38.2404 40.8301 37.9004 40.4901 37.9004 40.0801C37.9004 39.6701 38.2404 39.3301 38.6504 39.3301H40.5004C40.9104 39.3301 41.2504 39.6701 41.2504 40.0801C41.2504 40.4901 40.9104 40.8301 40.5004 40.8301Z" fill="#010B36"/>
<path d="M35.97 40.8301H29.5C29.09 40.8301 28.75 40.4901 28.75 40.0801C28.75 39.6701 29.09 39.3301 29.5 39.3301H35.97C36.38 39.3301 36.72 39.6701 36.72 40.0801C36.72 40.4901 36.39 40.8301 35.97 40.8301Z" fill="#010B36"/>
<path d="M40.4997 37.0703H34.9697C34.5597 37.0703 34.2197 36.7303 34.2197 36.3203C34.2197 35.9103 34.5597 35.5703 34.9697 35.5703H40.4997C40.9097 35.5703 41.2497 35.9103 41.2497 36.3203C41.2497 36.7303 40.9097 37.0703 40.4997 37.0703Z" fill="#010B36"/>
<path d="M32.27 37.0703H29.5C29.09 37.0703 28.75 36.7303 28.75 36.3203C28.75 35.9103 29.09 35.5703 29.5 35.5703H32.27C32.68 35.5703 33.02 35.9103 33.02 36.3203C33.02 36.7303 32.68 37.0703 32.27 37.0703Z" fill="#010B36"/>
<path opacity="0.2" d="M39.19 25H30.81C27.17 25 25 27.17 25 30.81V39.18C25 42.83 27.17 45 30.81 45H39.18C42.82 45 44.99 42.83 44.99 39.19V30.81C45 27.17 42.83 25 39.19 25Z" fill="#010B36"/>
</g>
<defs>
<linearGradient id="paint0_linear_16345_162478" x1="3" y1="-5.5" x2="56.5" y2="61.5" gradientUnits="userSpaceOnUse">
<stop stop-color="#EBEFFF"/>
<stop offset="1" stop-color="white" stop-opacity="0"/>
</linearGradient>
<clipPath id="clip0_16345_162478">
<rect width="24" height="24" fill="white" transform="translate(23 23)"/>
</clipPath>
</defs>
</svg>
